<svg xmlns="http://www.w3.org/2000/svg" xmlns:xlink="http://www.w3.org/1999/xlink" width="2000" zoomAndPan="magnify" viewBox="0 0 1500 1499.999933" height="2000" preserveAspectRatio="xMidYMid meet" version="1.0"><defs><g/><clipPath id="8ac4477f46"><rect x="0" width="168" y="0" height="275"/></clipPath><clipPath id="196b911408"><rect x="0" width="113" y="0" height="275"/></clipPath><clipPath id="2d405f66b7"><rect x="0" width="186" y="0" height="286"/></clipPath><clipPath id="fc2e7c3c43"><rect x="0" width="112" y="0" height="275"/></clipPath><clipPath id="d21dc1c556"><rect x="0" width="164" y="0" height="292"/></clipPath><clipPath id="bb99d1c8b5"><rect x="0" width="203" y="0" height="297"/></clipPath><clipPath id="3f84a42978"><rect x="0" width="163" y="0" height="290"/></clipPath><clipPath id="192b9bdc75"><rect x="0" width="324" y="0" height="210"/></clipPath></defs><rect x="-150" width="1800" fill="#ffffff" y="-149.999993" height="1799.99992" fill-opacity="1"/><rect x="-150" width="1800" fill="#f4e4c3" y="-149.999993" height="1799.99992" fill-opacity="1"/><g transform="matrix(1, 0, 0, 1, 240, 571)"><g clip-path="url(#8ac4477f46)"><g fill="#f59d06" fill-opacity="1"><g transform="translate(1.050188, 219.199391)"><g><path d="M 1.859375 -120.59375 C 2.273438 -125.96875 2.960938 -129.546875 3.921875 -131.328125 C 4.816406 -133.117188 8.09375 -135.671875 13.75 -138.984375 C 28.832031 -147.660156 46.773438 -152.585938 67.578125 -153.765625 C 88.316406 -154.859375 105.78125 -149.171875 119.96875 -136.703125 C 126.507812 -130.921875 131.710938 -123.484375 135.578125 -114.390625 C 139.359375 -105.222656 139.1875 -96.472656 135.0625 -88.140625 C 133.332031 -84.628906 130.988281 -81.769531 128.03125 -79.5625 C 125.0625 -77.289062 122.441406 -74.675781 120.171875 -71.71875 C 118.171875 -69.09375 117.273438 -66.265625 117.484375 -63.234375 C 117.554688 -61.035156 117.972656 -58.972656 118.734375 -57.046875 C 119.347656 -55.179688 120.171875 -53.421875 121.203125 -51.765625 C 122.242188 -49.972656 123.453125 -48.390625 124.828125 -47.015625 C 126.335938 -45.429688 127.851562 -44.054688 129.375 -42.890625 C 130.613281 -41.847656 132.332031 -40.601562 134.53125 -39.15625 C 135.707031 -38.40625 137.535156 -37.269531 140.015625 -35.75 C 140.910156 -35.132812 141.84375 -34.582031 142.8125 -34.09375 C 143.707031 -33.539062 144.632812 -32.992188 145.59375 -32.453125 C 148.070312 -31.066406 149.898438 -30.03125 151.078125 -29.34375 C 154.660156 -27.144531 155.242188 -24.320312 152.828125 -20.875 C 150.828125 -17.976562 148.070312 -14.945312 144.5625 -11.78125 C 141.050781 -8.539062 137.78125 -5.992188 134.75 -4.140625 C 130.820312 -1.648438 126.410156 -1.40625 121.515625 -3.40625 C 113.867188 -6.4375 106.050781 -12.535156 98.0625 -21.703125 C 90 -30.796875 83.59375 -37.890625 78.84375 -42.984375 C 76.082031 -45.671875 73.289062 -47.53125 70.46875 -48.5625 C 67.582031 -49.59375 64.445312 -48.5625 61.0625 -45.46875 C 57.488281 -42.09375 56.078125 -35.992188 56.828125 -27.171875 C 57.515625 -18.359375 58.273438 -11.78125 59.109375 -7.4375 C 59.515625 -4.75 59.203125 -3.023438 58.171875 -2.265625 C 57.066406 -1.441406 55.378906 -0.894531 53.109375 -0.625 C 50.492188 -0.28125 47.566406 -0.109375 44.328125 -0.109375 C 41.023438 -0.0351562 38.0625 -0.101562 35.4375 -0.3125 C 33.582031 -0.445312 31.722656 -0.722656 29.859375 -1.140625 C 27.929688 -1.484375 26.3125 -2.410156 25 -3.921875 C 22.25 -6.816406 19.21875 -13.945312 15.90625 -25.3125 C 12.53125 -36.613281 10.394531 -44.398438 9.5 -48.671875 C 9.300781 -49.429688 9.128906 -50.222656 8.984375 -51.046875 C 8.785156 -51.804688 8.613281 -52.597656 8.46875 -53.421875 C 6.269531 -63.617188 4.378906 -74.640625 2.796875 -86.484375 C 1.203125 -98.265625 0.890625 -109.632812 1.859375 -120.59375 Z M 82.765625 -118.515625 C 75.054688 -120.722656 67.03125 -120.347656 58.6875 -117.390625 C 54.695312 -115.867188 51.941406 -113.179688 50.421875 -109.328125 C 49.597656 -107.054688 49.492188 -103.507812 50.109375 -98.6875 C 50.734375 -93.863281 51.800781 -90.585938 53.3125 -88.859375 C 56.488281 -85.210938 61.003906 -83.628906 66.859375 -84.109375 C 69.679688 -84.390625 72.609375 -84.835938 75.640625 -85.453125 C 78.597656 -86.078125 81.390625 -87.007812 84.015625 -88.25 C 88.421875 -90.3125 91.585938 -93.789062 93.515625 -98.6875 C 95.441406 -103.507812 94.785156 -108.085938 91.546875 -112.421875 C 89.140625 -115.453125 86.210938 -117.484375 82.765625 -118.515625 Z M 82.765625 -118.515625 "/></g></g></g></g></g><g transform="matrix(1, 0, 0, 1, 375, 543)"><g clip-path="url(#196b911408)"><g fill="#f88bad" fill-opacity="1"><g transform="translate(1.00005, 218.628378)"><g><path d="M 8.46875 -60.140625 C 12.675781 -68.265625 17.257812 -74.707031 22.21875 -79.46875 C 24.21875 -81.320312 25.492188 -82.488281 26.046875 -82.96875 C 33.960938 -89.925781 42.953125 -94.71875 53.015625 -97.34375 C 61.554688 -99.613281 69.851562 -99.644531 77.90625 -97.4375 C 81.695312 -96.34375 85.488281 -94.347656 89.28125 -91.453125 C 93.070312 -88.484375 95.929688 -85.242188 97.859375 -81.734375 C 99.921875 -77.742188 101.226562 -72.71875 101.78125 -66.65625 C 102.539062 -57.695312 101.710938 -49.632812 99.296875 -42.46875 C 97.847656 -38.125 95.710938 -33.921875 92.890625 -29.859375 C 90.066406 -25.722656 87.140625 -22.039062 84.109375 -18.8125 C 79.566406 -13.988281 74.398438 -9.890625 68.609375 -6.515625 C 62.828125 -3.140625 56.59375 -1.140625 49.90625 -0.515625 C 42.945312 -0.0351562 36.40625 -0.828125 30.28125 -2.890625 C 25.382812 -4.546875 20.90625 -6.851562 16.84375 -9.8125 C 12.707031 -12.707031 9.539062 -16.460938 7.34375 -21.078125 C 5.0625 -25.554688 3.816406 -30.757812 3.609375 -36.6875 C 3.265625 -45.15625 4.882812 -52.972656 8.46875 -60.140625 Z M 35.34375 -45.78125 C 35.34375 -41.4375 37.820312 -36.921875 42.78125 -32.234375 C 47.738281 -27.554688 52.765625 -26.457031 57.859375 -28.9375 C 61.097656 -30.519531 63.097656 -32.757812 63.859375 -35.65625 C 64.546875 -38.476562 64.410156 -41.4375 63.453125 -44.53125 C 61.242188 -51.5625 56.003906 -55.800781 47.734375 -57.25 C 39.472656 -58.695312 35.34375 -54.875 35.34375 -45.78125 Z M 35.34375 -45.78125 "/></g></g></g></g></g><g transform="matrix(1, 0, 0, 1, 447, 566)"><g clip-path="url(#2d405f66b7)"><g fill="#31a768" fill-opacity="1"><g transform="translate(15.141001, 229.472055)"><g><path d="M 100.125 -55.546875 C 101.144531 -50.515625 101.753906 -43.304688 101.953125 -33.921875 C 102.085938 -24.472656 101.941406 -17.769531 101.515625 -13.8125 C 101.015625 -9.78125 99.84375 -7.53125 98 -7.0625 C 94.75 -6.289062 90.773438 -6.476562 86.078125 -7.625 C 81.378906 -8.757812 78.109375 -10.097656 76.265625 -11.640625 C 75.484375 -12.210938 74.925781 -12.9375 74.59375 -13.8125 C 73.957031 -15.019531 73.691406 -16.378906 73.796875 -17.890625 C 73.910156 -19.421875 73.816406 -24.523438 73.515625 -33.203125 C 73.160156 -41.867188 72.242188 -48.539062 70.765625 -53.21875 C 69.710938 -56.394531 68.425781 -59.070312 66.90625 -61.25 C 62.457031 -67.03125 57.566406 -69.472656 52.234375 -68.578125 C 46.847656 -67.585938 43.222656 -61.851562 41.359375 -51.375 C 40.753906 -44.789062 42.109375 -35.285156 45.421875 -22.859375 C 45.859375 -21.242188 46.34375 -19.550781 46.875 -17.78125 C 47.34375 -15.945312 47.632812 -14.171875 47.75 -12.453125 C 47.75 -9.203125 46.316406 -6.796875 43.453125 -5.234375 C 40.523438 -3.660156 37.175781 -2.644531 33.40625 -2.1875 C 29.632812 -1.738281 25.90625 -1.738281 22.21875 -2.1875 C 18.539062 -2.632812 15.945312 -3.296875 14.4375 -4.171875 C 11.644531 -5.703125 9.585938 -8.117188 8.265625 -11.421875 C 6.867188 -14.703125 5.789062 -17.941406 5.03125 -21.140625 C 3.519531 -27.253906 2.421875 -35.09375 1.734375 -44.65625 C 0.960938 -54.125 0.5625 -61.691406 0.53125 -67.359375 C 0.445312 -72.941406 0.828125 -78.828125 1.671875 -85.015625 C 2.503906 -91.210938 3.851562 -95.820312 5.71875 -98.84375 C 7.132812 -101.425781 8.851562 -103.234375 10.875 -104.265625 C 13.269531 -105.535156 16.070312 -106.378906 19.28125 -106.796875 C 22.4375 -107.203125 25.296875 -107.351562 27.859375 -107.25 C 31.585938 -107.09375 34.507812 -106.210938 36.625 -104.609375 C 38.664062 -103.015625 39.300781 -99.671875 38.53125 -94.578125 L 38.671875 -94.078125 C 42.609375 -99.171875 47.515625 -101.671875 53.390625 -101.578125 C 59.628906 -102.191406 66.226562 -100.515625 73.1875 -96.546875 C 78.132812 -93.703125 81.363281 -91.398438 82.875 -89.640625 C 85.320312 -94.222656 88.957031 -98.15625 93.78125 -101.4375 C 98.613281 -104.644531 104.054688 -106.410156 110.109375 -106.734375 C 116.242188 -106.941406 122.785156 -105.0625 129.734375 -101.09375 C 137.054688 -96.882812 142.789062 -91.050781 146.9375 -83.59375 C 151.082031 -76.0625 154.140625 -68.425781 156.109375 -60.6875 C 157.503906 -55.257812 158.832031 -47.6875 160.09375 -37.96875 C 161.289062 -28.226562 160.75 -20.628906 158.46875 -15.171875 C 157.695312 -13.265625 156.363281 -12.078125 154.46875 -11.609375 C 151.257812 -10.835938 147.304688 -11.023438 142.609375 -12.171875 C 137.910156 -13.296875 134.65625 -14.632812 132.84375 -16.1875 C 132.039062 -16.757812 131.472656 -17.484375 131.140625 -18.359375 C 130.429688 -19.546875 130.171875 -20.90625 130.359375 -22.4375 C 130.460938 -23.96875 130.609375 -25.394531 130.796875 -26.71875 C 131.441406 -31.71875 131.410156 -36.992188 130.703125 -42.546875 C 129.921875 -48.015625 128.785156 -53.085938 127.296875 -57.765625 C 126.191406 -60.929688 124.914062 -63.609375 123.46875 -65.796875 C 119.007812 -71.578125 114.082031 -74.015625 108.6875 -73.109375 C 104.289062 -72.742188 101.515625 -70.972656 100.359375 -67.796875 C 99.171875 -64.609375 99.09375 -60.523438 100.125 -55.546875 Z M 100.125 -55.546875 "/></g></g></g></g></g><g transform="matrix(1, 0, 0, 1, 634, 566)"><g clip-path="url(#fc2e7c3c43)"><g fill="#db5b2a" fill-opacity="1"><g transform="translate(0.350447, 219.026033)"><g><path d="M 42.265625 -43.5 C 39.992188 -39.570312 40.335938 -35.367188 43.296875 -30.890625 C 46.253906 -26.347656 51.179688 -25.109375 58.078125 -27.171875 C 62.410156 -28.484375 65.679688 -30.414062 67.890625 -32.96875 C 70.097656 -35.507812 71.507812 -38.226562 72.125 -41.125 C 72.675781 -44.289062 71.882812 -46.976562 69.75 -49.1875 C 67.539062 -51.394531 64.820312 -52.769531 61.59375 -53.3125 C 58.28125 -53.800781 54.800781 -53.320312 51.15625 -51.875 C 47.5 -50.351562 44.535156 -47.5625 42.265625 -43.5 Z M 63.453125 -82.875 C 56.691406 -84.382812 50.007812 -84.554688 43.40625 -83.390625 C 38.375 -82.492188 34.132812 -80.738281 30.6875 -78.125 C 27.175781 -75.4375 23.144531 -74.539062 18.59375 -75.4375 C 13.976562 -76.332031 10.707031 -78.914062 8.78125 -83.1875 C 6.851562 -87.382812 7.335938 -91 10.234375 -94.03125 C 13.054688 -97.0625 15.601562 -99.367188 17.875 -100.953125 C 19.457031 -102.128906 21.078125 -103.128906 22.734375 -103.953125 C 27.140625 -106.296875 31.71875 -107.847656 36.46875 -108.609375 C 41.15625 -109.359375 45.878906 -109.804688 50.640625 -109.953125 C 56.972656 -110.085938 63.171875 -109.5 69.234375 -108.1875 C 73.984375 -107.226562 78.632812 -105.78125 83.1875 -103.84375 C 87.664062 -101.851562 92.003906 -97.828125 96.203125 -91.765625 C 100.335938 -85.703125 102.128906 -78.535156 101.578125 -70.265625 C 101.023438 -61.929688 100.710938 -52.082031 100.640625 -40.71875 C 100.578125 -28.25 102.09375 -18.910156 105.1875 -12.703125 C 105.53125 -11.742188 105.910156 -10.710938 106.328125 -9.609375 C 106.671875 -8.503906 106.8125 -7.398438 106.75 -6.296875 C 106.75 -4.367188 105.953125 -2.648438 104.359375 -1.140625 C 102.773438 0.378906 100.363281 1.445312 97.125 2.0625 C 93.820312 2.6875 90.796875 2.550781 88.046875 1.65625 C 85.285156 0.757812 83.320312 0 82.15625 -0.625 C 80.019531 -1.789062 78.398438 -3.410156 77.296875 -5.484375 C 76.535156 -6.992188 75.914062 -8.4375 75.4375 -9.8125 C 71.78125 -7.0625 68.679688 -5.132812 66.140625 -4.03125 C 60.484375 -1.613281 54.453125 -0.269531 48.046875 0 C 41.503906 0.132812 35.269531 -0.796875 29.34375 -2.796875 C 24.800781 -4.304688 20.632812 -6.335938 16.84375 -8.890625 C 13.050781 -11.367188 10.15625 -14.503906 8.15625 -18.296875 C 6.300781 -21.941406 5.375 -26.175781 5.375 -31 C 5.375 -37.882812 7.234375 -44.082031 10.953125 -49.59375 C 12.878906 -52.28125 14.707031 -54.765625 16.4375 -57.046875 C 18.082031 -59.316406 21.695312 -62.484375 27.28125 -66.546875 C 32.863281 -70.609375 39.648438 -73.085938 47.640625 -73.984375 C 55.628906 -74.878906 64.132812 -74.296875 73.15625 -72.234375 C 73.4375 -72.710938 73.195312 -74.019531 72.4375 -76.15625 C 71.675781 -78.21875 68.679688 -80.457031 63.453125 -82.875 Z M 63.453125 -82.875 "/></g></g></g></g></g><g transform="matrix(1, 0, 0, 1, 724, 534)"><g clip-path="url(#d21dc1c556)"><g fill="#0987c7" fill-opacity="1"><g transform="translate(12.005143, 215.239514)"><g><path d="M 62.96875 -81.46875 C 66.9375 -83.414062 71.984375 -84.082031 78.109375 -83.46875 C 84.179688 -82.894531 90.054688 -79.78125 95.734375 -74.125 C 101.773438 -68.144531 105.859375 -61.003906 107.984375 -52.703125 C 110.023438 -44.359375 111.015625 -36.1875 110.953125 -28.1875 C 110.878906 -22.570312 110.21875 -14.90625 108.96875 -5.1875 C 107.71875 4.539062 105.285156 11.75 101.671875 16.4375 C 100.421875 18.070312 98.820312 18.875 96.875 18.84375 C 93.582031 18.738281 89.820312 17.519531 85.59375 15.1875 C 81.351562 12.863281 78.546875 10.722656 77.171875 8.765625 C 76.484375 7.992188 76.097656 7.140625 76.015625 6.203125 C 75.722656 4.890625 75.820312 3.507812 76.3125 2.0625 C 76.8125 0.613281 77.332031 -0.71875 77.875 -1.9375 C 79.726562 -6.632812 81 -11.753906 81.6875 -17.296875 C 82.351562 -22.785156 82.550781 -27.984375 82.28125 -32.890625 C 82.101562 -36.222656 81.601562 -39.140625 80.78125 -41.640625 C 78.0625 -49.066406 73.976562 -53.046875 68.53125 -53.578125 C 63.070312 -54.035156 58.070312 -49.097656 53.53125 -38.765625 C 51.238281 -32.554688 50.097656 -23.023438 50.109375 -10.171875 C 50.179688 -8.460938 50.242188 -6.691406 50.296875 -4.859375 C 50.273438 -2.972656 50.09375 -1.179688 49.75 0.515625 C 48.90625 3.648438 46.898438 5.601562 43.734375 6.375 C 40.554688 7.132812 37.085938 7.242188 33.328125 6.703125 C 29.566406 6.160156 25.96875 5.191406 22.53125 3.796875 C 19.007812 2.390625 16.640625 1.066406 15.421875 -0.171875 C 13.128906 -2.378906 11.773438 -5.242188 11.359375 -8.765625 C 10.867188 -12.316406 10.644531 -15.738281 10.6875 -19.03125 C 10.820312 -25.320312 11.765625 -33.179688 13.515625 -42.609375 C 15.179688 -51.960938 16.5 -58.6875 17.46875 -62.78125 C 18.414062 -66.820312 19.695312 -71.445312 21.3125 -76.65625 C 22.863281 -81.894531 26.0625 -88.175781 30.90625 -95.5 C 32.945312 -97.613281 35.070312 -98.90625 37.28125 -99.375 C 39.914062 -99.96875 42.835938 -100.050781 46.046875 -99.625 C 49.265625 -99.1875 52.0625 -98.585938 54.4375 -97.828125 C 58.007812 -96.679688 60.601562 -95.070312 62.21875 -93 C 63.84375 -90.914062 63.617188 -87.519531 61.546875 -82.8125 Z M 62.96875 -81.46875 "/></g></g></g></g></g><g transform="matrix(1, 0, 0, 1, 849, 555)"><g clip-path="url(#bb99d1c8b5)"><g fill="#f59d06" fill-opacity="1"><g transform="translate(11.53631, 217.148304)"><g><path d="M 77.59375 -144.046875 C 78.519531 -143.285156 79.429688 -142.421875 80.328125 -141.453125 C 82.097656 -139.367188 83.800781 -137.082031 85.4375 -134.59375 C 87.09375 -132.101562 88.675781 -129.640625 90.1875 -127.203125 C 97.851562 -113.910156 105.269531 -98.988281 112.4375 -82.4375 C 114.625 -89 116.875 -95.097656 119.1875 -100.734375 C 121.4375 -106.304688 123.675781 -110.945312 125.90625 -114.65625 C 128.632812 -119.320312 131.375 -122.945312 134.125 -125.53125 C 136.3125 -127.5 138.617188 -128.648438 141.046875 -128.984375 C 143.941406 -129.234375 147.171875 -128.953125 150.734375 -128.140625 C 154.222656 -127.253906 157.316406 -126.296875 160.015625 -125.265625 C 163.878906 -123.628906 166.71875 -121.628906 168.53125 -119.265625 C 170.332031 -116.898438 170.140625 -113.375 167.953125 -108.6875 C 160.316406 -92.351562 153.851562 -73.890625 148.5625 -53.296875 C 143.207031 -32.734375 140.59375 -13.867188 140.71875 3.296875 C 140.707031 5.109375 140.734375 6.957031 140.796875 8.84375 C 140.847656 10.8125 140.679688 12.632812 140.296875 14.3125 C 139.453125 17.519531 137.296875 19.3125 133.828125 19.6875 C 130.265625 20.125 126.441406 19.828125 122.359375 18.796875 C 118.191406 17.804688 114.222656 16.40625 110.453125 14.59375 C 106.617188 12.75 104.015625 11.09375 102.640625 9.625 C 100.273438 7.238281 98.765625 4.296875 98.109375 0.796875 C 97.472656 -2.710938 97.15625 -6.109375 97.15625 -9.390625 C 93.894531 -26.398438 89.75 -41.972656 84.71875 -56.109375 C 79.601562 -70.191406 73.40625 -84.894531 66.125 -100.21875 C 61.644531 -86.820312 58.0625 -73.085938 55.375 -59.015625 C 52.59375 -44.859375 51.253906 -31.710938 51.359375 -19.578125 C 51.296875 -17.773438 51.332031 -15.921875 51.46875 -14.015625 C 51.519531 -12.054688 51.335938 -10.203125 50.921875 -8.453125 C 49.191406 -2.035156 43.179688 -0.515625 32.890625 -3.890625 C 22.578125 -7.191406 16.015625 -10.316406 13.203125 -13.265625 C 10.660156 -15.804688 9.117188 -19 8.578125 -22.84375 C 7.984375 -26.625 7.726562 -30.179688 7.8125 -33.515625 C 7.820312 -40.054688 8.773438 -48.164062 10.671875 -57.84375 C 12.472656 -67.46875 14.800781 -77.285156 17.65625 -87.296875 C 20.425781 -97.328125 23.507812 -106.863281 26.90625 -115.90625 C 30.226562 -124.945312 33.445312 -132.117188 36.5625 -137.421875 C 39.070312 -142.054688 41.785156 -145.722656 44.703125 -148.421875 C 46.890625 -150.390625 49.210938 -151.492188 51.671875 -151.734375 C 54.578125 -152.066406 57.785156 -151.832031 61.296875 -151.03125 C 64.796875 -150.144531 67.925781 -149.175781 70.6875 -148.125 C 74.007812 -146.582031 76.3125 -145.222656 77.59375 -144.046875 Z M 77.59375 -144.046875 "/></g></g></g></g></g><g transform="matrix(1, 0, 0, 1, 1003, 592)"><g clip-path="url(#3f84a42978)"><g fill="#f88bad" fill-opacity="1"><g transform="translate(32.175443, 234.792614)"><g><path d="M 37.234375 -49.15625 C 35.347656 -47.769531 34.644531 -46.625 35.125 -45.71875 C 39.832031 -39.863281 44.898438 -36.226562 50.328125 -34.8125 C 55.765625 -33.382812 61.835938 -33.515625 68.546875 -35.203125 C 73.710938 -36.441406 79.550781 -40.019531 86.0625 -45.9375 C 92.582031 -51.769531 98.75 -52.472656 104.5625 -48.046875 C 110.382812 -43.546875 110.273438 -37.925781 104.234375 -31.1875 C 98.117188 -24.425781 93.210938 -19.90625 89.515625 -17.625 C 85.753906 -15.320312 81.453125 -13.609375 76.609375 -12.484375 C 71.765625 -11.273438 66.921875 -10.554688 62.078125 -10.328125 C 55.523438 -9.921875 49.078125 -10.460938 42.734375 -11.953125 C 37.847656 -13.035156 33.023438 -14.796875 28.265625 -17.234375 C 23.515625 -19.597656 19.191406 -22.71875 15.296875 -26.59375 C 8.035156 -33.738281 2.65625 -42.070312 -0.84375 -51.59375 C -5.039062 -66.28125 -3.195312 -79.5 4.6875 -91.25 C 9.382812 -97.175781 14.945312 -101.929688 21.375 -105.515625 C 27.75 -109.046875 35.546875 -112.117188 44.765625 -114.734375 C 53.984375 -117.347656 63.800781 -116.882812 74.21875 -113.34375 C 84.644531 -109.738281 91.769531 -103.023438 95.59375 -93.203125 C 99.40625 -83.398438 100.835938 -76.507812 99.890625 -72.53125 C 98.953125 -68.5 96.75 -65.738281 93.28125 -64.25 C 89.820312 -62.695312 71.140625 -57.664062 37.234375 -49.15625 Z M 54.109375 -89.6875 C 45.429688 -89.03125 39.476562 -86.6875 36.25 -82.65625 C 32.945312 -78.550781 30.953125 -75.296875 30.265625 -72.890625 C 30.066406 -72.367188 30.410156 -71.722656 31.296875 -70.953125 C 32.171875 -70.179688 45.738281 -73.546875 72 -81.046875 C 68.6875 -87.378906 62.722656 -90.257812 54.109375 -89.6875 Z M 54.109375 -89.6875 "/></g></g></g></g></g><g transform="matrix(1, 0, 0, 1, 945, 746)"><g clip-path="url(#192b9bdc75)"><g fill="#db5b2a" fill-opacity="1"><g transform="translate(29.005399, 112.130276)"><g><path d="M 35.078125 4.046875 C 32.359375 4.691406 29.847656 4.4375 27.546875 3.28125 C 25.847656 2.425781 24.503906 2.660156 23.515625 3.984375 C 23.253906 4.335938 23.015625 4.726562 22.796875 5.15625 C 22.578125 5.582031 22.34375 5.960938 22.09375 6.296875 C 21.582031 6.972656 20.925781 7.628906 20.125 8.265625 C 19.320312 8.910156 18.492188 9.347656 17.640625 9.578125 C 16.796875 9.816406 16.003906 9.660156 15.265625 9.109375 C 14.515625 8.546875 13.941406 7.769531 13.546875 6.78125 C 13.160156 5.789062 13.347656 4.785156 14.109375 3.765625 C 14.484375 3.253906 14.890625 2.765625 15.328125 2.296875 C 15.773438 1.835938 16.195312 1.34375 16.59375 0.8125 C 17.351562 -0.207031 17.785156 -0.992188 17.890625 -1.546875 C 17.992188 -2.097656 17.703125 -2.628906 17.015625 -3.140625 C 16.328125 -3.660156 15.5 -4.132812 14.53125 -4.5625 C 13.570312 -4.988281 12.703125 -5.492188 11.921875 -6.078125 C 11.265625 -6.566406 10.671875 -7.222656 10.140625 -8.046875 C 9.609375 -8.867188 9.269531 -9.734375 9.125 -10.640625 C 8.988281 -11.554688 9.203125 -12.390625 9.765625 -13.140625 C 10.566406 -14.222656 11.40625 -14.835938 12.28125 -14.984375 C 13.15625 -15.128906 14.03125 -14.988281 14.90625 -14.5625 C 15.78125 -14.144531 16.664062 -13.613281 17.5625 -12.96875 C 18.46875 -12.332031 19.328125 -11.765625 20.140625 -11.265625 C 20.960938 -10.773438 21.753906 -10.523438 22.515625 -10.515625 C 23.285156 -10.503906 23.992188 -10.9375 24.640625 -11.8125 C 25.546875 -13.039062 26.359375 -14.359375 27.078125 -15.765625 C 27.804688 -17.179688 28.617188 -18.492188 29.515625 -19.703125 C 29.847656 -20.148438 30.257812 -20.585938 30.75 -21.015625 C 31.238281 -21.453125 31.8125 -21.703125 32.46875 -21.765625 C 33.125 -21.835938 33.859375 -21.570312 34.671875 -20.96875 C 35.390625 -20.4375 35.804688 -19.742188 35.921875 -18.890625 C 36.035156 -18.046875 36.082031 -17.207031 36.0625 -16.375 C 36.050781 -14.664062 35.691406 -13.101562 34.984375 -11.6875 C 34.285156 -10.269531 33.472656 -8.910156 32.546875 -7.609375 C 31.796875 -6.535156 31.289062 -5.726562 31.03125 -5.1875 C 30.78125 -4.65625 30.785156 -4.128906 31.046875 -3.609375 C 31.316406 -3.085938 31.820312 -2.289062 32.5625 -1.21875 C 33.09375 -0.5 33.582031 0.289062 34.03125 1.15625 C 34.488281 2.03125 34.835938 2.992188 35.078125 4.046875 Z M 35.078125 4.046875 "/></g></g></g><g fill="#db5b2a" fill-opacity="1"><g transform="translate(56.187055, 131.656321)"><g><path d="M 32.953125 -13.203125 C 33.390625 -12.835938 33.867188 -12.429688 34.390625 -11.984375 C 34.910156 -11.535156 35.300781 -11.046875 35.5625 -10.515625 C 35.832031 -9.984375 35.8125 -9.375 35.5 -8.6875 C 35.207031 -8.070312 34.6875 -7.734375 33.9375 -7.671875 C 33.1875 -7.609375 32.472656 -7.515625 31.796875 -7.390625 C 31.066406 -7.234375 30.375 -7.289062 29.71875 -7.5625 C 29.070312 -7.84375 28.425781 -8.097656 27.78125 -8.328125 C 26.269531 -8.890625 24.976562 -9.191406 23.90625 -9.234375 C 22.832031 -9.285156 21.847656 -9.054688 20.953125 -8.546875 C 20.066406 -8.035156 19.109375 -7.210938 18.078125 -6.078125 C 17.296875 -5.171875 16.5625 -4.25 15.875 -3.3125 C 15.195312 -2.375 14.585938 -1.363281 14.046875 -0.28125 C 13.535156 0.71875 12.742188 1.429688 11.671875 1.859375 C 10.609375 2.296875 9.609375 2.296875 8.671875 1.859375 C 8.117188 1.597656 7.597656 1.148438 7.109375 0.515625 C 6.628906 -0.117188 6.253906 -0.816406 5.984375 -1.578125 C 5.722656 -2.335938 5.660156 -3.039062 5.796875 -3.6875 C 5.878906 -4.21875 6.023438 -4.734375 6.234375 -5.234375 C 6.441406 -5.734375 6.660156 -6.222656 6.890625 -6.703125 C 7.054688 -7.078125 7.234375 -7.445312 7.421875 -7.8125 C 7.617188 -8.175781 7.796875 -8.523438 7.953125 -8.859375 C 8.242188 -9.503906 8.503906 -10.160156 8.734375 -10.828125 C 8.972656 -11.503906 9.140625 -12.210938 9.234375 -12.953125 C 9.210938 -13.140625 9.273438 -13.382812 9.421875 -13.6875 C 9.796875 -14.5 10.597656 -15.070312 11.828125 -15.40625 C 13.066406 -15.738281 14.476562 -15.976562 16.0625 -16.125 C 17.65625 -16.269531 19.128906 -16.421875 20.484375 -16.578125 C 21.398438 -16.691406 22.3125 -16.734375 23.21875 -16.703125 C 24.132812 -16.671875 25.03125 -16.453125 25.90625 -16.046875 C 26.3125 -15.847656 26.695312 -15.609375 27.0625 -15.328125 C 27.4375 -15.054688 27.828125 -14.828125 28.234375 -14.640625 C 28.984375 -14.296875 29.753906 -14.023438 30.546875 -13.828125 C 31.347656 -13.628906 32.148438 -13.421875 32.953125 -13.203125 Z M 32.953125 -13.203125 "/></g></g></g><g fill="#db5b2a" fill-opacity="1"><g transform="translate(82.317436, 143.827618)"><g><path d="M 25.671875 -2.984375 C 25.847656 -2.429688 26.171875 -2.015625 26.640625 -1.734375 C 27.117188 -1.460938 27.664062 -1.238281 28.28125 -1.0625 C 28.894531 -0.882812 29.472656 -0.675781 30.015625 -0.4375 C 30.554688 -0.195312 30.960938 0.15625 31.234375 0.625 C 31.503906 1.09375 31.546875 1.742188 31.359375 2.578125 C 31.117188 3.671875 30.601562 4.488281 29.8125 5.03125 C 29.019531 5.582031 28.101562 5.921875 27.0625 6.046875 C 26.019531 6.171875 24.941406 6.175781 23.828125 6.0625 C 22.722656 5.957031 21.734375 5.804688 20.859375 5.609375 C 19.515625 5.304688 18.257812 4.773438 17.09375 4.015625 C 15.925781 3.253906 14.898438 2.160156 14.015625 0.734375 C 13.492188 -0.160156 12.941406 -0.851562 12.359375 -1.34375 C 11.785156 -1.832031 11.117188 -2.160156 10.359375 -2.328125 C 9.804688 -2.453125 9.175781 -2.476562 8.46875 -2.40625 C 7.757812 -2.332031 7.097656 -2.367188 6.484375 -2.515625 C 5.679688 -2.691406 4.894531 -3.132812 4.125 -3.84375 C 3.363281 -4.550781 2.773438 -5.375 2.359375 -6.3125 C 1.941406 -7.25 1.828125 -8.140625 2.015625 -8.984375 C 2.285156 -10.179688 2.945312 -11.117188 4 -11.796875 C 5.0625 -12.484375 6.117188 -12.707031 7.171875 -12.46875 C 7.390625 -12.425781 7.613281 -12.367188 7.84375 -12.296875 C 8.082031 -12.222656 8.289062 -12.164062 8.46875 -12.125 C 9.707031 -11.84375 10.75 -11.960938 11.59375 -12.484375 C 12.4375 -13.003906 13.320312 -13.71875 14.25 -14.625 C 15.15625 -15.675781 16.28125 -16.507812 17.625 -17.125 C 18.96875 -17.75 20.398438 -18.140625 21.921875 -18.296875 C 23.453125 -18.453125 24.890625 -18.378906 26.234375 -18.078125 C 27.835938 -17.722656 29 -17.007812 29.71875 -15.9375 C 30.445312 -14.875 30.859375 -13.671875 30.953125 -12.328125 C 31.054688 -10.984375 30.976562 -9.722656 30.71875 -8.546875 C 30.570312 -7.929688 30.332031 -7.332031 30 -6.75 C 29.664062 -6.175781 29.148438 -5.640625 28.453125 -5.140625 C 28.003906 -4.828125 27.472656 -4.585938 26.859375 -4.421875 C 26.242188 -4.253906 25.847656 -3.773438 25.671875 -2.984375 Z M 23.09375 -30.671875 C 23.40625 -32.054688 24.203125 -32.601562 25.484375 -32.3125 C 26.472656 -32.09375 27.253906 -31.570312 27.828125 -30.75 C 28.410156 -29.9375 28.789062 -29.019531 28.96875 -28 C 29.15625 -26.988281 29.148438 -26.046875 28.953125 -25.171875 C 28.734375 -24.210938 28.332031 -23.550781 27.75 -23.1875 C 27.164062 -22.820312 26.617188 -22.695312 26.109375 -22.8125 C 25.347656 -22.976562 24.679688 -23.453125 24.109375 -24.234375 C 23.535156 -25.015625 23.132812 -25.929688 22.90625 -26.984375 C 22.6875 -28.035156 22.679688 -29.035156 22.890625 -29.984375 C 22.910156 -30.085938 22.9375 -30.203125 22.96875 -30.328125 C 23 -30.460938 23.039062 -30.578125 23.09375 -30.671875 Z M 23.09375 -30.671875 "/></g></g></g><g fill="#db5b2a" fill-opacity="1"><g transform="translate(117.033603, 150.664859)"><g><path d="M 6.140625 5.296875 C 4.984375 5.140625 4.078125 4.757812 3.421875 4.15625 C 2.773438 3.550781 2.46875 2.816406 2.5 1.953125 C 2.519531 1.546875 2.660156 1.082031 2.921875 0.5625 C 3.191406 0.0390625 3.445312 -0.460938 3.6875 -0.953125 C 3.9375 -1.441406 4.066406 -1.875 4.078125 -2.25 C 4.097656 -2.78125 3.9375 -3.40625 3.59375 -4.125 C 2.875 -5.6875 2.546875 -7.382812 2.609375 -9.21875 C 2.703125 -11.519531 3.40625 -13.65625 4.71875 -15.625 C 6.03125 -17.601562 7.75 -19.035156 9.875 -19.921875 C 10.257812 -20.097656 10.640625 -20.222656 11.015625 -20.296875 C 11.390625 -20.378906 11.765625 -20.410156 12.140625 -20.390625 C 13.179688 -20.347656 14.015625 -19.976562 14.640625 -19.28125 C 15.273438 -18.59375 15.570312 -17.816406 15.53125 -16.953125 C 15.507812 -16.398438 15.332031 -15.910156 15 -15.484375 C 14.664062 -15.066406 14.191406 -14.625 13.578125 -14.15625 C 12.378906 -13.28125 11.476562 -12.523438 10.875 -11.890625 C 10.28125 -11.253906 9.96875 -10.617188 9.9375 -9.984375 C 9.914062 -9.398438 10.109375 -8.722656 10.515625 -7.953125 C 10.929688 -7.191406 11.550781 -6.175781 12.375 -4.90625 C 12.863281 -4.28125 13.234375 -3.632812 13.484375 -2.96875 C 13.742188 -2.3125 13.863281 -1.644531 13.84375 -0.96875 C 13.78125 0.488281 13.289062 1.6875 12.375 2.625 C 11.457031 3.5625 10.410156 4.25 9.234375 4.6875 C 8.066406 5.125 7.035156 5.328125 6.140625 5.296875 Z M 6.140625 5.296875 "/></g></g></g><g fill="#db5b2a" fill-opacity="1"><g transform="translate(135.855963, 151.286133)"><g/></g></g><g fill="#db5b2a" fill-opacity="1"><g transform="translate(154.128891, 149.571571)"><g><path d="M 4.4375 -12.359375 C 5.363281 -12.460938 6.25 -12.242188 7.09375 -11.703125 C 7.945312 -11.160156 8.675781 -10.457031 9.28125 -9.59375 C 9.894531 -8.726562 10.296875 -7.8125 10.484375 -6.84375 C 10.660156 -5.9375 10.460938 -4.945312 9.890625 -3.875 C 9.328125 -2.8125 8.515625 -2.175781 7.453125 -1.96875 C 6.597656 -1.800781 5.738281 -1.984375 4.875 -2.515625 C 4.007812 -3.054688 3.25 -3.820312 2.59375 -4.8125 C 1.945312 -5.8125 1.507812 -6.878906 1.28125 -8.015625 C 1 -9.441406 1.1875 -10.46875 1.84375 -11.09375 C 2.507812 -11.726562 3.375 -12.148438 4.4375 -12.359375 Z M 5.71875 -28.265625 C 5.789062 -27.097656 5.5625 -26.03125 5.03125 -25.0625 C 4.5 -24.101562 3.773438 -23.535156 2.859375 -23.359375 C 1.679688 -23.128906 0.582031 -23.332031 -0.4375 -23.96875 C -1.457031 -24.601562 -2.0625 -25.414062 -2.25 -26.40625 C -2.457031 -27.476562 -2.253906 -28.5 -1.640625 -29.46875 C -1.035156 -30.445312 -0.1875 -31.046875 0.90625 -31.265625 C 1.601562 -31.398438 2.289062 -31.320312 2.96875 -31.03125 C 3.65625 -30.75 4.257812 -30.351562 4.78125 -29.84375 C 5.300781 -29.34375 5.613281 -28.816406 5.71875 -28.265625 Z M 5.71875 -28.265625 "/></g></g></g><g fill="#db5b2a" fill-opacity="1"><g transform="translate(169.529154, 147.064222)"><g><path d="M 11.59375 -16.578125 C 10.644531 -15.671875 10.035156 -14.554688 9.765625 -13.234375 C 9.492188 -11.921875 9.382812 -10.535156 9.4375 -9.078125 C 9.488281 -7.628906 9.523438 -6.234375 9.546875 -4.890625 C 9.566406 -3.546875 9.394531 -2.367188 9.03125 -1.359375 C 8.664062 -0.347656 7.941406 0.359375 6.859375 0.765625 C 5.796875 1.148438 4.859375 1.179688 4.046875 0.859375 C 3.242188 0.546875 2.550781 0.0195312 1.96875 -0.71875 C 1.394531 -1.46875 0.925781 -2.332031 0.5625 -3.3125 C 0.125 -4.507812 -0.0625 -5.753906 0 -7.046875 C 0.0625 -8.347656 0.378906 -9.570312 0.953125 -10.71875 C 1.523438 -11.875 2.320312 -12.796875 3.34375 -13.484375 C 4.269531 -14.097656 4.984375 -14.863281 5.484375 -15.78125 C 5.984375 -16.707031 6.425781 -17.660156 6.8125 -18.640625 C 7.207031 -19.617188 7.675781 -20.515625 8.21875 -21.328125 C 8.757812 -22.148438 9.539062 -22.75 10.5625 -23.125 C 11.570312 -23.5 12.570312 -23.550781 13.5625 -23.28125 C 14.5625 -23.007812 15.488281 -22.554688 16.34375 -21.921875 C 17.195312 -21.285156 17.929688 -20.554688 18.546875 -19.734375 C 19.160156 -18.921875 19.601562 -18.148438 19.875 -17.421875 C 20.320312 -16.222656 20.9375 -15.1875 21.71875 -14.3125 C 22.5 -13.445312 23.707031 -13.0625 25.34375 -13.15625 C 25.882812 -13.1875 26.425781 -13.101562 26.96875 -12.90625 C 27.519531 -12.71875 27.898438 -12.34375 28.109375 -11.78125 C 28.421875 -10.9375 28.328125 -10.101562 27.828125 -9.28125 C 27.335938 -8.457031 26.691406 -7.898438 25.890625 -7.609375 C 24.273438 -7.015625 22.78125 -6.929688 21.40625 -7.359375 C 20.03125 -7.796875 18.757812 -8.535156 17.59375 -9.578125 C 16.4375 -10.617188 15.363281 -11.773438 14.375 -13.046875 C 13.382812 -14.328125 12.457031 -15.503906 11.59375 -16.578125 Z M 11.59375 -16.578125 "/></g></g></g><g fill="#db5b2a" fill-opacity="1"><g transform="translate(200.083978, 134.983803)"><g><path d="M 8.015625 1.171875 C 6.953125 1.671875 5.984375 1.835938 5.109375 1.671875 C 4.242188 1.503906 3.59375 1.046875 3.15625 0.296875 C 2.957031 -0.0546875 2.828125 -0.519531 2.765625 -1.09375 C 2.710938 -1.664062 2.660156 -2.222656 2.609375 -2.765625 C 2.554688 -3.316406 2.4375 -3.753906 2.25 -4.078125 C 1.976562 -4.535156 1.5 -4.976562 0.8125 -5.40625 C -0.625 -6.332031 -1.800781 -7.59375 -2.71875 -9.1875 C -3.875 -11.1875 -4.425781 -13.367188 -4.375 -15.734375 C -4.332031 -18.097656 -3.648438 -20.222656 -2.328125 -22.109375 C -2.097656 -22.460938 -1.84375 -22.773438 -1.5625 -23.046875 C -1.289062 -23.316406 -0.992188 -23.546875 -0.671875 -23.734375 C 0.234375 -24.253906 1.140625 -24.382812 2.046875 -24.125 C 2.953125 -23.875 3.625 -23.375 4.0625 -22.625 C 4.332031 -22.15625 4.4375 -21.648438 4.375 -21.109375 C 4.320312 -20.578125 4.160156 -19.953125 3.890625 -19.234375 C 3.347656 -17.847656 2.988281 -16.722656 2.8125 -15.859375 C 2.644531 -15.003906 2.722656 -14.300781 3.046875 -13.75 C 3.335938 -13.238281 3.863281 -12.769531 4.625 -12.34375 C 5.394531 -11.925781 6.460938 -11.398438 7.828125 -10.765625 C 8.578125 -10.503906 9.238281 -10.160156 9.8125 -9.734375 C 10.382812 -9.316406 10.835938 -8.816406 11.171875 -8.234375 C 11.910156 -6.972656 12.140625 -5.695312 11.859375 -4.40625 C 11.585938 -3.125 11.070312 -1.984375 10.3125 -0.984375 C 9.5625 0.00390625 8.796875 0.722656 8.015625 1.171875 Z M 8.015625 1.171875 "/></g></g></g><g fill="#db5b2a" fill-opacity="1"><g transform="translate(216.941406, 125.43421)"><g><path d="M 10.03125 9.109375 C 8.6875 7.359375 7.460938 5.519531 6.359375 3.59375 C 5.265625 1.664062 4.171875 -0.242188 3.078125 -2.140625 C 1.984375 -4.046875 0.738281 -5.859375 -0.65625 -7.578125 C -1.34375 -8.410156 -2.171875 -9.179688 -3.140625 -9.890625 C -4.109375 -10.597656 -4.90625 -11.335938 -5.53125 -12.109375 C -6.925781 -13.828125 -7.375 -15.804688 -6.875 -18.046875 C -6.375 -20.296875 -4.890625 -22.425781 -2.421875 -24.4375 C -0.941406 -25.644531 0.671875 -26.535156 2.421875 -27.109375 C 4.171875 -27.691406 5.894531 -27.796875 7.59375 -27.421875 C 9.289062 -27.046875 10.835938 -26.007812 12.234375 -24.3125 C 13.222656 -23.09375 13.816406 -21.726562 14.015625 -20.21875 C 14.210938 -18.71875 14.007812 -17.222656 13.40625 -15.734375 C 12.800781 -14.253906 11.789062 -12.9375 10.375 -11.78125 C 9.9375 -11.425781 9.53125 -11.117188 9.15625 -10.859375 C 8.78125 -10.609375 8.460938 -10.375 8.203125 -10.15625 C 7.390625 -9.5 7.046875 -8.890625 7.171875 -8.328125 C 7.296875 -7.773438 7.78125 -6.859375 8.625 -5.578125 C 10.476562 -2.710938 12.378906 0.148438 14.328125 3.015625 C 16.285156 5.890625 18.148438 8.828125 19.921875 11.828125 C 21.648438 14.773438 21.847656 16.789062 20.515625 17.875 C 19.816406 18.445312 18.925781 18.484375 17.84375 17.984375 C 16.769531 17.484375 15.773438 16.664062 14.859375 15.53125 C 14.003906 14.488281 13.191406 13.421875 12.421875 12.328125 C 11.660156 11.242188 10.863281 10.171875 10.03125 9.109375 Z M 10.03125 9.109375 "/></g></g></g><g fill="#db5b2a" fill-opacity="1"><g transform="translate(238.655545, 106.925795)"><g><path d="M -3.765625 -12.578125 C -3.078125 -13.203125 -2.226562 -13.550781 -1.21875 -13.625 C -0.21875 -13.707031 0.78125 -13.578125 1.78125 -13.234375 C 2.789062 -12.898438 3.65625 -12.398438 4.375 -11.734375 C 5.0625 -11.109375 5.488281 -10.195312 5.65625 -9 C 5.832031 -7.800781 5.550781 -6.804688 4.8125 -6.015625 C 4.226562 -5.378906 3.429688 -5.015625 2.421875 -4.921875 C 1.410156 -4.835938 0.347656 -5.003906 -0.765625 -5.421875 C -1.890625 -5.835938 -2.878906 -6.4375 -3.734375 -7.21875 C -4.804688 -8.195312 -5.257812 -9.132812 -5.09375 -10.03125 C -4.9375 -10.925781 -4.492188 -11.773438 -3.765625 -12.578125 Z M -12.171875 -26.140625 C -11.421875 -25.253906 -10.972656 -24.257812 -10.828125 -23.15625 C -10.691406 -22.0625 -10.941406 -21.171875 -11.578125 -20.484375 C -12.378906 -19.609375 -13.378906 -19.125 -14.578125 -19.03125 C -15.773438 -18.9375 -16.75 -19.234375 -17.5 -19.921875 C -18.289062 -20.648438 -18.726562 -21.585938 -18.8125 -22.734375 C -18.90625 -23.878906 -18.578125 -24.863281 -17.828125 -25.6875 C -17.335938 -26.21875 -16.734375 -26.566406 -16.015625 -26.734375 C -15.304688 -26.910156 -14.59375 -26.945312 -13.875 -26.84375 C -13.15625 -26.75 -12.585938 -26.515625 -12.171875 -26.140625 Z M -12.171875 -26.140625 "/></g></g></g><g fill="#db5b2a" fill-opacity="1"><g transform="translate(249.220394, 95.819943)"><g><path d="M -7.609375 -34.6875 C -7.171875 -35.0625 -6.6875 -35.460938 -6.15625 -35.890625 C -5.632812 -36.328125 -5.085938 -36.632812 -4.515625 -36.8125 C -3.941406 -36.988281 -3.347656 -36.867188 -2.734375 -36.453125 C -2.171875 -36.066406 -1.921875 -35.492188 -1.984375 -34.734375 C -2.046875 -33.984375 -2.066406 -33.257812 -2.046875 -32.5625 C -2.003906 -31.820312 -2.175781 -31.15625 -2.5625 -30.5625 C -2.945312 -29.96875 -3.300781 -29.375 -3.625 -28.78125 C -4.4375 -27.382812 -4.953125 -26.160156 -5.171875 -25.109375 C -5.398438 -24.054688 -5.332031 -23.046875 -4.96875 -22.078125 C -4.613281 -21.117188 -3.960938 -20.035156 -3.015625 -18.828125 C -2.253906 -17.898438 -1.460938 -17.019531 -0.640625 -16.1875 C 0.171875 -15.363281 1.0625 -14.601562 2.03125 -13.90625 C 2.9375 -13.238281 3.515625 -12.34375 3.765625 -11.21875 C 4.015625 -10.09375 3.84375 -9.097656 3.25 -8.234375 C 2.90625 -7.742188 2.378906 -7.304688 1.671875 -6.921875 C 0.972656 -6.546875 0.226562 -6.289062 -0.5625 -6.15625 C -1.363281 -6.019531 -2.066406 -6.078125 -2.671875 -6.328125 C -3.191406 -6.492188 -3.679688 -6.722656 -4.140625 -7.015625 C -4.597656 -7.304688 -5.039062 -7.597656 -5.46875 -7.890625 C -5.8125 -8.128906 -6.144531 -8.367188 -6.46875 -8.609375 C -6.800781 -8.859375 -7.125 -9.085938 -7.4375 -9.296875 C -8.019531 -9.703125 -8.625 -10.070312 -9.25 -10.40625 C -9.882812 -10.75 -10.550781 -11.023438 -11.25 -11.234375 C -11.4375 -11.253906 -11.664062 -11.363281 -11.9375 -11.5625 C -12.675781 -12.0625 -13.109375 -12.941406 -13.234375 -14.203125 C -13.359375 -15.472656 -13.363281 -16.90625 -13.25 -18.5 C -13.132812 -20.101562 -13.050781 -21.582031 -13 -22.9375 C -12.945312 -23.851562 -12.828125 -24.757812 -12.640625 -25.65625 C -12.460938 -26.5625 -12.097656 -27.414062 -11.546875 -28.21875 C -11.296875 -28.582031 -11.003906 -28.921875 -10.671875 -29.234375 C -10.347656 -29.546875 -10.054688 -29.890625 -9.796875 -30.265625 C -9.335938 -30.941406 -8.941406 -31.65625 -8.609375 -32.40625 C -8.273438 -33.164062 -7.941406 -33.925781 -7.609375 -34.6875 Z M -7.609375 -34.6875 "/></g></g></g><g fill="#db5b2a" fill-opacity="1"><g transform="translate(265.53468, 72.0546)"><g><path d="M 1.296875 -25.8125 C 0.546875 -26.113281 0.132812 -26.582031 0.0625 -27.21875 C -0.0078125 -27.851562 -0.160156 -28.421875 -0.390625 -28.921875 C -0.765625 -29.679688 -1.207031 -30.273438 -1.71875 -30.703125 C -2.226562 -31.128906 -2.78125 -31.460938 -3.375 -31.703125 C -4.476562 -32.148438 -5.703125 -32.4375 -7.046875 -32.5625 C -8.390625 -32.695312 -9.644531 -32.492188 -10.8125 -31.953125 C -11.976562 -31.410156 -12.875 -30.378906 -13.5 -28.859375 C -14.019531 -27.578125 -14.328125 -26.171875 -14.421875 -24.640625 C -14.515625 -23.109375 -14.367188 -21.628906 -13.984375 -20.203125 C -13.597656 -18.773438 -12.960938 -17.53125 -12.078125 -16.46875 C -11.328125 -15.394531 -10.765625 -14.398438 -10.390625 -13.484375 C -10.023438 -12.566406 -10.082031 -11.519531 -10.5625 -10.34375 C -10.625 -10.175781 -10.707031 -9.976562 -10.8125 -9.75 C -10.925781 -9.53125 -11.023438 -9.320312 -11.109375 -9.125 C -11.515625 -8.125 -11.46875 -7.046875 -10.96875 -5.890625 C -10.476562 -4.742188 -9.664062 -3.9375 -8.53125 -3.46875 C -7.726562 -3.144531 -6.828125 -3.109375 -5.828125 -3.359375 C -4.835938 -3.617188 -3.929688 -4.070312 -3.109375 -4.71875 C -2.285156 -5.363281 -1.71875 -6.066406 -1.40625 -6.828125 C -1.164062 -7.410156 -1.023438 -8.054688 -0.984375 -8.765625 C -0.941406 -9.472656 -0.8125 -10.085938 -0.59375 -10.609375 C -0.300781 -11.328125 0.128906 -11.929688 0.703125 -12.421875 C 1.285156 -12.910156 2.0625 -13.34375 3.03125 -13.71875 C 4.582031 -14.34375 5.828125 -15.171875 6.765625 -16.203125 C 7.710938 -17.234375 8.445312 -18.390625 8.96875 -19.671875 C 9.3125 -20.503906 9.628906 -21.453125 9.921875 -22.515625 C 10.210938 -23.585938 10.378906 -24.648438 10.421875 -25.703125 C 10.472656 -26.753906 10.289062 -27.710938 9.875 -28.578125 C 9.46875 -29.453125 8.742188 -30.101562 7.703125 -30.53125 C 6.910156 -30.851562 6.257812 -30.914062 5.75 -30.71875 C 5.238281 -30.519531 4.820312 -30.171875 4.5 -29.671875 C 4.1875 -29.171875 3.890625 -28.632812 3.609375 -28.0625 C 3.328125 -27.488281 3.015625 -26.992188 2.671875 -26.578125 C 2.328125 -26.160156 1.867188 -25.90625 1.296875 -25.8125 Z M -24.6875 -38.703125 C -24.164062 -39.972656 -23.46875 -40.832031 -22.59375 -41.28125 C -21.726562 -41.738281 -20.847656 -41.785156 -19.953125 -41.421875 C -19.296875 -41.148438 -18.722656 -40.625 -18.234375 -39.84375 C -17.742188 -39.0625 -17.53125 -38.035156 -17.59375 -36.765625 L -17.5 -36.4375 C -17.238281 -35.6875 -17.046875 -34.847656 -16.921875 -33.921875 C -16.796875 -32.992188 -16.894531 -32.132812 -17.21875 -31.34375 C -17.65625 -30.28125 -18.320312 -29.578125 -19.21875 -29.234375 C -20.125 -28.890625 -20.972656 -28.878906 -21.765625 -29.203125 C -22.347656 -29.441406 -22.851562 -29.835938 -23.28125 -30.390625 C -23.707031 -30.953125 -23.941406 -31.660156 -23.984375 -32.515625 C -23.992188 -32.492188 -24 -32.484375 -24 -32.484375 C -24.039062 -32.503906 -24.101562 -32.78125 -24.1875 -33.3125 C -24.28125 -33.851562 -24.367188 -34.484375 -24.453125 -35.203125 C -24.546875 -35.929688 -24.617188 -36.625 -24.671875 -37.28125 C -24.722656 -37.945312 -24.726562 -38.421875 -24.6875 -38.703125 Z M -24.6875 -38.703125 "/></g></g></g></g></g></svg>